<svg version="1.0" xmlns="http://www.w3.org/2000/svg" width="352" height="352" viewBox="0 0 264 264"><path d="M125.9 7.2c-.1.7-.3 3.8-.5 6.8-.5 8.2-.4 8-3.1 6.3-2.4-1.6-2.8-1.3-3.5 3.2-.4 2.7-1.8 3.6-4 2.4-1.2-.7-1.8-.6-1.8.2 0 .7-1.1 1-2.9.7-2.1-.3-3.2.1-4.1 1.6-.9 1.5-1 2.1-.1 2.4.6.2 1.1.8 1.1 1.3s-3.1.9-7 .9c-5.2 0-7.5.4-9 1.7-2.2 1.9-2.6 3.3-.9 3.3.5 0 .8-.4.5-.9-.3-.5.1-1.1.9-1.5 2.1-.8 1.9.7-.5 3.4-1.1 1.3-2 1.8-2 1.2 0-1.3-7.8-1-10 .3-.8.5-1.1.4-.7-.2.3-.5-.9-.8-3.1-.5-2 .2-4.8.5-6.2.5-2 .1-2.6.7-2.6 2.3 0 2.1 1.4 2.8 2.6 1.2.3-.3 1.4 0 2.4.7 1.7 1.3 1.6 1.4-1 1.1-1.6-.1-3.5.2-4.1.7-.8.6-1.3.6-1.3 0 0-.5-1.3-.8-3-.5-3 .4-3.6-.5-3.1-4.6.1-.6-.2-1.2-.6-1.3-.4 0-1.6-.2-2.5-.4-1-.2-1.8.1-1.8.6 0 .6-.7.6-1.7.1-2.6-1.3-5.8 0-5.8 2.3.1 1.1.7 1.9 1.4 1.7.7-.1 1 .2.6.8-.3.6-1 .8-1.5.5-.4-.2-.8 1.3-.8 3.5-.1 3.3.3 4 1.6 3.8 1-.2 1.7.3 1.7 1.2 0 .9-.7 1.4-1.7 1.2-1-.2-1.8.2-1.8.8 0 .6.4.9.9.5.6-.3 1.5.3 2.1 1.2 1 1.6 1.1 1.6.6.1-.6-2 1-3.4 1.8-1.6.3.7.3.3 0-1-.3-1.2-.2-2.2.3-2.2s1 1.1 1.1 2.5c.1 1.4-.3 2.5-.9 2.5-.6 0-.3.7.6 1.6.9 1 1.3 2.5 1 3.8-.5 1.8-.5 1.9.5.3.6-.9.9-2.1.6-2.6-.3-.5.1-1.1.9-1.5.8-.3 1.5 0 1.5.7 0 .8.4.7 1.1-.3.7-1.1.9-.6.7 2l-.3 3.5 7 .5 7 .5.1 17.5c0 11.4-.3 17.8-1 18.2-.8.5-.7.8.1.8.7 0 1 .7.7 1.5-.4.8-1 1.5-1.6 1.5-.5 0-.6-.5-.2-1.1.5-.8.1-.8-1.3 0-1.1.6-2.3.7-2.7.4-.3-.3-.6 1-.6 3 0 3.6-.1 3.7-3.6 3.7-2.8 0-3.5.3-3.1 1.5.4.8.2 1.7-.3 2-.5.3-.7 1.2-.4 2 .4.9-.1 1.3-1.5 1.2-1.2-.1-2.1-.5-2.1-1s-.6-.5-1.2 0c-.7.6-4.3 1.1-7.9 1.1l-6.6.1.1-3.2.1-3.1-5.5-.1c-7-.1-8.4.3-7 2 .8.9.8 1.5 0 2-.5.3-1 1.1-1 1.6 0 .6.6.7 1.3.3.9-.6.9-.4.1.7-.5.8-1 2.5-1 3.9.1 1.9.6 2.5 2.3 2.4 1.3-.1 2 .3 1.6.9-.4.6 0 .8 1 .4 1.2-.5 1.7-.1 1.7 1.3 0 1.1-.5 2-1.1 2-.5 0-.7-.5-.3-1.2.4-.7.3-.8-.5-.4-.6.4-.8 1.2-.5 1.8.4.6-.1.8-1.5.3-1.1-.3-2.1-.2-2.1.3 0 .4 1.5.9 3.3 1 7.3.4 8.9.8 9.9 2.6.7 1.3.7 1.7 0 1.2-.6-.3-1.3-.2-1.7.4-.3.5-.1 1 .5 1s.9.4.6.8c-.2.4.4.9 1.5.9 1.1.1 1.7-.2 1.4-.8-.4-.5.4-.5 2 .1 1.4.5 2.9.9 3.3.9.4-.1 1.7-.1 2.9 0 2.2.1 2.2.2 2.1 18.8 0 10.3-.3 19.3-.5 20-.3.8-1.2.9-2.8.3-1.8-.7-2.5-.5-2.9.6-.3.9-.4 2 0 2.5.3.5.1.9-.5.9s-.8.7-.4 1.6c.5 1.4.1 1.6-2.5 1.2-1.8-.2-3.2-.1-3.2.4s-.5.6-1 .3c-.6-.4-1.7-.1-2.5.5-1.1.9-1.5.9-1.5.1 0-.6-.4-1.1-.8-1.1s-.8 1.1-.8 2.4c0 1.7.5 2.3 2.1 2.2 1.3-.1 1.9-.8 1.9-1.9-.2-1.5.1-1.6 1.3-.5 1 .8 1.1 1.4.4 1.6-.6.2-.9.7-.6 1.2.3.4-1.5.7-4 .7-3.4-.2-4.5.2-4.5 1.3 0 1-.3 1.1-.8.4-.4-.7-2.6-1.1-5-1-3.4.2-4.6-.2-5.4-1.7-.7-1.5-.7-1.8.2-1.2.8.5 1.1.1.8-1.1-.3-1.6-1.3-1.9-6.6-2l-6.2-.2-.1 3.7c0 2-.2 4.7-.3 5.9-.3 2.4.3 3 3.9 3.5 2.1.3 2.5.8 2.5 3.3 0 1.3-.3 1.4-1.5.4-.8-.6-2-.8-2.6-.4-.8.5-.9.3-.5-.5.5-.7 1.5-1 2.3-.7.8.3 1.1.2.8-.3-1.1-1.9-4.1-.8-4.1 1.5 0 1.5.5 2 1.5 1.6 1-.4 1.2-.1.6.9-.7 1.1-.6 1.2.6.3 1-.8 2.1-.7 3.9.2 1.4.8 2.1 1.4 1.5 1.4-.5 0-.4.4.4.9 1.3.8 1.3 1.2 0 2.7-1.3 1.6-1.2 1.6.8.4 1.7-1.1 1.9-1.7 1.1-2.8-.8-.9-.8-1.6-.1-2.3.7-.7 1.3-.2 1.7 1.7.5 1.8.3 3-.6 3.5-.8.5 2 .9 6.5.9H33v22.9c0 17.4.3 23 1.3 23.3 1 .3 191.5.2 195.5-.1.9-.1 1.2-5.4 1.2-23.1v-23h7c6.1 0 8.6-.9 6.3-2.3-.5-.2-.3-.3.3-.1.6.1 1.7-.2 2.5-.7 1.1-.8 1-.9-.5-.7-1 .2-2.1-.2-2.3-.7-.5-1.5 4-1.7 4.9-.3.4.7.9.2 1.3-1.4.4-1.5 1.3-2.9 2.1-3.2 1.6-.6 1.9-2.6.3-2.6-.5 0-.7.4-.4 1 .3.5.1 1-.4 1-.6 0-1.1-.7-1.1-1.5 0-.9.9-1.5 2.5-1.5 1.7 0 2.3.4 1.9 1.4-.3.8-.2 1.6.3 1.9.4.3.9-1 1-2.9.2-1.9.4-3.7.4-4.1.1-.5.1-2.7 0-5.1l-.1-4.2h-12.6l.2 3c.2 3.2.3 3.2-7.1 3.2-8-.1-8.5-.1-8.5-1.3 0-.5.4-.8.8-.5.4.2.8-.6.8-2 0-1.3-.4-2.4-.8-2.4s-.8.5-.8 1.2c0 .9-.3.9-1.2 0-.7-.7-3.1-1.2-5.5-1.2-4.4 0-4.8-.5-4.4-5.3.2-1.3-.5-1.7-3.3-1.7-2 0-3.6-.5-3.6-1.1 0-.5.4-.8.9-.4.5.3 1.3.1 1.6-.5.4-.6.3-1-.2-.9-2 .3-2.7-.2-1.3-1.1.9-.6 1-1 .3-1-.8 0-1.2-4.7-1.2-16.9-.2-19.1-.8-17.9 8.7-17.6 4.1.2 5.2-.1 4.8-1.1-.6-1.4.9-2 1.7-.7.2.5.2.2.1-.4-.2-.7.5-1.7 1.4-2.2 1.6-1 1.6-1 0-1.1-1 0-1.8.4-1.8 1 0 .5-.4 1-1 1-.5 0-.7-.7-.3-1.6.4-1.1 1.5-1.5 3.4-1.2 2.8.4 3.5-.5 3-3.5-.1-.5.3-.6.9-.2.5.3 1 .1 1-.4 0-.6-.4-1.1-1-1.1-.5 0-1-.4-1-.8 0-1.3 3.9-.8 4.5.6.2.7.1 1.1-.3.8-.4-.3-1.4.4-2 1.5-1.2 1.9-1.2 1.9 1.3.3 1.3-.9 2.3-2 2-2.4-.3-.5-.1-1.1.4-1.4 1-.7.6-9-.5-10.8-.5-.7-.2-.8.6-.3s1.1.3.8-.6c-.3-1-2.2-1.4-5.9-1.5-7.2 0-7.7.2-7.3 3.8l.4 3-5-.4c-2.8-.1-5 .1-5 .6s-.6.4-1.2-.1c-.7-.6-2.1-.9-3-.8-1 .2-2.1-.1-2.4-.6-.3-.6-1.1-.5-2 .2-1.3 1-1.4.7-1.1-2.5.2-2 .2-3.5 0-3.2-.3.3-1.6.1-2.9-.4-1.6-.6-2.4-.6-2.4.1 0 .6-.4.7-1 .4-.5-.3-1-2.2-1-4 0-3.3-.2-3.4-3-3.1-1.7.2-3.3 0-3.6-.5-.3-.5.1-.9.8-.9 1 0 1-.2-.1-.9-.9-.6-1-1.1-.2-1.5.6-.4.8-1.3.4-1.9-.5-.7-.8-8.5-.9-17.5V66h6.8c4.4 0 6.7-.4 6.3-1-.3-.6-.1-1 .4-1 .6 0 1.1.5 1.1 1.2 0 .6.3.8.7.5.3-.4-.2-1.6-1.2-2.7-1.1-1.2-1.3-2-.6-2 .7 0 1-.4.7-.8-.2-.4.6-.8 2-.8 1.3 0 2.4.4 2.4.9s.7.2 1.5-.7c.8-.8 2.4-1.3 3.5-1.1 1.1.2 1.8 0 1.5-.5-.3-.5-.1-1.1.5-1.5 1.5-.9.1-2.7-1.6-2.1-.8.3-1.4.1-1.4-.4s.8-1 1.8-1.2c1.3-.3 1.7-1.4 1.8-5.5 0-2.9-.3-5-.7-4.7-.5.3-.6-.1-.3-.9s-.2-1.7-1.2-2.1c-1.2-.5-1.5-.2-1 1 .5 1.4.4 1.5-.8.5-.8-.7-2-1-2.6-.6-.5.3-1 .2-1-.3s-1.1-.7-2.5-.4c-1.4.2-2.5.9-2.5 1.4 0 .5-.5.6-1.1.3-.6-.4-.5.2.2 1.3 1.6 2.6.9 3.4-2.7 3.2-1.6 0-4.7-.1-6.9-.2-2.2 0-3.4-.3-2.7-.5.6-.3 1-.9.7-1.3-.3-.5-.1-1.1.4-1.4.5-.4 1.3-.1 1.7.5.5.8.3.9-.6.4-.8-.5-1.1-.4-.7.2.3.5 1.6.9 2.9.8 2.8-.2 3.2-3.7.6-4.1-1-.1-1.8.2-1.8.8 0 .6-.6.6-1.5-.2-.8-.7-2.2-1-3-.6-.8.3-1.5.2-1.5-.2 0-.5-1.7-.7-3.7-.5-2.1.1-4-.3-4.5-1-.4-.6-.8-.7-.8-.2 0 .6-1.9 1-4.2 1-4.3-.2-5.4-1.9-2.5-3.7.8-.5.6-.8-.5-.8-1 0-1.8.5-1.8 1.2 0 .6-.3.8-.6.5-.4-.4-.1-1.3.6-2.2 1.1-1.3.8-1.5-1.9-1.5-2.3 0-3 .4-2.5 1.2.6 1 .4 1-.7 0-.7-.6-2.8-1.2-4.6-1.2-3.1 0-3.3-.2-3.3-3.3v-3.2l-5.5.1c-3 .1-5.5-.3-5.5-.8s-.3-.7-.7-.5c-.5.3-1.4-.1-2.1-.9-1-1.1-1-1.4.2-1.4.7 0 1.6-.6 1.9-1.4.4-1-.4-1.3-3.4-1.2-4.1.2-4.1.3-4.2-6.2 0-1.7-.4-3.2-.9-3.2-.4 0-.8-.5-.8-1.1 0-.5.4-.8.8-.5.5.3.9-.1.9-.8 0-.9-1.8-1.4-5.5-1.5-3-.1-5.9-.4-6.3-.7-.5-.3-1 .1-1 .8zm4.4 4.3c-.3.9-.8 1.4-1 1.1-.3-.3-.2-.9.2-1.5.9-1.6 1.5-1.3.8.4zm3.7-.1c0 .2-.8 1-1.7 1.7-1.6 1.3-1.7 1.2-.4-.4 1.3-1.6 2.1-2.1 2.1-1.3zM110.5 29c-.3.5-.1 1 .6 1s1 .3.6.6c-.9.9-2.8-.6-2.2-1.7.4-.5.8-.9 1.1-.9.3 0 .2.4-.1 1zm46.5 1c0 .5-.7.6-1.7.3-1-.4-1.4-.2-.9.5.3.6.2 1.3-.3 1.6-.7.5-.8-1.1-.2-3.2.3-.7 3.1 0 3.1.8zm-62 8c0 .5-.5 1-1.1 1-.5 0-.7-.5-.4-1 .3-.6.8-1 1.1-1 .2 0 .4.4.4 1zm-26 4c0 .5-.5 1-1.1 1-.5 0-.7-.5-.4-1 .3-.6.8-1 1.1-1 .2 0 .4.4.4 1zm5.4-.1c.4.5-.4.7-1.6.4-1.9-.4-2-.3-.8.6.9.7 1 1.1.3 1.1-1.5 0-2.5-1.5-1.6-2.4.9-.9 3.1-.7 3.7.3zm118.6-.5c0 .2-.7.7-1.6 1-.8.3-1.2.2-.9-.4.6-1 2.5-1.4 2.5-.6zm4.7 1c0 .8-.6 1.2-1.5.9-1.1-.5-1.1-.7 0-1.4.7-.5 1.3-.9 1.4-.9 0 0 .1.6.1 1.4zM53.5 44c-.3.5-1.2 1-1.8 1-.7 0-.6-.4.3-1 1.9-1.2 2.3-1.2 1.5 0zm160.5-.6c0 .2-.8 1-1.7 1.7-1.6 1.3-1.7 1.2-.4-.4 1.3-1.6 2.1-2.1 2.1-1.3zm-.2 11.8c.6 1.3 1.1 1.7 1.1 1 .1-.6.6-1.2 1.3-1.2 1.8 0-.7 2.3-2.9 2.6-1.3.2-1.8-.4-1.8-2.1 0-3.1.9-3.2 2.3-.3zM228 187c.3.1 1 .2 1.5.1.6-.1.2.5-.7 1.2-1 .8-1.5 1.6-1.2 1.9.3.4.1.9-.4 1.2-.5.3-1.5-.1-2.2-.9-1-1.2-.9-1.5.4-1.5.9 0 1.6-.5 1.6-1.1 0-.5-.4-.8-.9-.4-.5.3-1.2.1-1.5-.4-.5-.8 1.5-.8 3.4-.1zm-191 1.2c0 .4-.4.8-.9.8-.6 0-1.2-.4-1.5-.8-.3-.5.1-.9.9-.9s1.5.4 1.5.9zm212.5 1.7c-.9.8-3.6 1-3 .2.2-.4 1.1-.8 2-.8.8 0 1.3.3 1 .6zm5.5-.5c0 .3-.4.8-1 1.1-.5.3-1 .1-1-.4 0-.6.5-1.1 1-1.1.6 0 1 .2 1 .4z"/><path d="M86.4 34.5c-.3.8-.4 2-.1 2.7.3.7.6.3.6-1 .1-1.3.5-2 1.1-1.7.6.3 1 .1 1-.4 0-1.6-2-1.3-2.6.4zM175 34c0 .5.5 1 1 1 .6 0 1 .7 1 1.7 0 .9.3 1.4.6 1 .8-.8-.5-4.7-1.7-4.7-.5 0-.9.4-.9 1zm-2.4 3.8c-.3.5.1.9.9.9s1.2-.4.9-.9c-.3-.4-.7-.8-.9-.8-.2 0-.6.4-.9.8zM61.1 43.3c-.8 1-.7 1.4.2 1.4.8 0 1.4-.6 1.4-1.4 0-.7-.1-1.3-.2-1.3-.2 0-.8.6-1.4 1.3zm140.2 0c0 .8.6 1.4 1.4 1.4.9 0 1-.4.2-1.4-.6-.7-1.2-1.3-1.4-1.3-.1 0-.2.6-.2 1.3zM207 62c0 .5.5 1 1 1 .6 0 1-.5 1-1 0-.6-.4-1-1-1-.5 0-1 .4-1 1zM68.6 99.8c-.3.5.1.9.9.9s1.2-.4.9-.9c-.3-.4-.7-.8-.9-.8-.2 0-.6.4-.9.8zm126 0c-.3.5.1.9.9.9s1.2-.4.9-.9c-.3-.4-.7-.8-.9-.8-.2 0-.6.4-.9.8zM53.4 113.2c-.3.4-.3.8.1.8.3 0 .1 1-.5 2.2-1 2.1-.9 2.1.9-.2 1.2-1.4 1.9-1.8 1.6-.9-.4 1 .1 1.9 1.2 2.3.9.4 1.4.4 1 0-.4-.4-.1-1.4.6-2.2 1-1.3.9-1.4-.2-.7-1 .6-1.3.4-.9-.6.6-1.6-2.9-2.2-3.8-.7zm153.5 0c-.5 1.8-.6 3.9-.2 3.4.4-.3 1.2-.1 1.9.5.9.8 1.6.5 2.4-1.2.7-1.2.8-1.9.2-1.5-.6.3-1.3.2-1.7-.4-.5-.9-2.4-1.4-2.6-.8zm2.6 1.9c1.1 1.6.1 1.9-1.3.3-.7-.8-.8-1.4-.3-1.4s1.3.5 1.6 1.1zM27.1 127.4c-1 1.1-.9 1.4.1 1.2 1.4-.2 2.3-1.5 1.5-2.2-.2-.2-1 .2-1.6 1zm208.3 3.2c-1.8 1.4-1.8 1.5.4.4 1.2-.6 2.2-1.3 2.2-1.5 0-.8-.5-.6-2.6 1.1zM33 134c0 .5.5 1 1.1 1 .8 0 .8.4.1 1.3-.8 1-.6 1.3 1.1 1.4 1.2 0 1.6-.1.8-.4-.9-.4-1-.8-.3-1.2.7-.4.4-1.1-.8-1.9-1.2-.7-2-.8-2-.2zm4.5 0c.3.5.8 1 1.1 1 .2 0 .4-.5.4-1 0-.6-.5-1-1.1-1-.5 0-.7.4-.4 1zm191.6.9c-1.5 1-.7 3.1 1.2 3 .8 0 .8-.2-.1-.6-1-.4-1-.8-.1-1.9 1.3-1.6 1-1.8-1-.5zM50.6 173.7c-.6 1.4-.5 1.5.5.6.7-.7 1-1.5.7-1.8-.3-.3-.9.2-1.2 1.2zm202.3 29.5c-1.1.8-1.1.9.3.5.9-.3 1.8-.1 2.1.6.2.8.5.8 1 0 .9-1.5-1.7-2.3-3.4-1.1zm-5.5 6.4c-1.8 1.4-1.8 1.5.4.4 1.2-.6 2.2-1.3 2.2-1.5 0-.8-.5-.6-2.6 1.1z"/></svg>